<svg width="131" height="124" viewBox="0 0 131 124" fill="none" xmlns="http://www.w3.org/2000/svg">
<path d="M103.622 32.461C89.3758 50.8515 58.8668 53.7585 71.2877 79.6073L118.288 79.7506L103.622 32.461Z" fill="#E0F273"/>
<path d="M118.288 79.7506L71.2877 79.6073L71.2511 91.6363L118.288 91.5144L118.288 79.7506Z" fill="#E0F273"/>
<g filter="url(#filter0_d_1_23)">
<path d="M71.2877 79.6073C56.9518 87.826 42.3273 91.8866 31.2516 91.5144C23.2636 91.2459 17.1214 88.6718 14.2647 83.6888C7.44713 71.7968 21.9237 50.6886 46.599 36.5425C71.2743 22.3963 96.8044 20.569 103.622 32.461C89.3758 50.8515 58.8668 53.7585 71.2877 79.6073Z" fill="#14D69C"/>
</g>
<defs>
<filter id="filter0_d_1_23" x="8.5791" y="24.6119" width="99.043" height="74.9259" filterUnits="userSpaceOnUse" color-interpolation-filters="sRGB">
<feFlood flood-opacity="0" result="BackgroundImageFix"/>
<feColorMatrix in="SourceAlpha" type="matrix" values="0 0 0 0 0 0 0 0 0 0 0 0 0 0 0 0 0 0 127 0" result="hardAlpha"/>
<feOffset dy="4"/>
<feGaussianBlur stdDeviation="2"/>
<feComposite in2="hardAlpha" operator="out"/>
<feColorMatrix type="matrix" values="0 0 0 0 0 0 0 0 0 0 0 0 0 0 0 0 0 0 0.25 0"/>
<feBlend mode="normal" in2="BackgroundImageFix" result="effect1_dropShadow_1_23"/>
<feBlend mode="normal" in="SourceGraphic" in2="effect1_dropShadow_1_23" result="shape"/>
</filter>
</defs>
</svg>
